<svg width="41" height="40" viewBox="0 0 41 40" fill="none" xmlns="http://www.w3.org/2000/svg">
<path d="M20.5 40C31.8218 40 41 31.0457 41 20C41 8.9543 31.8218 0 20.5 0C9.17816 0 0 8.9543 0 20C0 31.0457 9.17816 40 20.5 40Z" fill="#25D366"/>
<path fill-rule="evenodd" clip-rule="evenodd" d="M21.1757 31.1273H21.1706C19.1305 31.1266 17.1258 30.6272 15.3454 29.6797L8.8833 31.3335L10.6127 25.1709C9.54591 23.3673 8.98459 21.3214 8.9855 19.2254C8.98818 12.6682 14.4566 7.3335 21.1756 7.3335C24.4365 7.33487 27.4971 8.57338 29.7986 10.8213C32.1001 13.0692 33.3668 16.0571 33.3656 19.2347C33.3629 25.7904 27.8966 31.1246 21.1757 31.1273ZM15.6448 27.5267L16.0147 27.7409C17.5703 28.6415 19.3535 29.118 21.1716 29.1187H21.1757C26.76 29.1187 31.3051 24.6844 31.3073 19.234C31.3084 16.5928 30.2555 14.1093 28.3426 12.2409C26.4298 10.3725 23.8859 9.34305 21.1797 9.34214C15.591 9.34214 11.0459 13.776 11.0436 19.226C11.0429 21.0937 11.5785 22.9127 12.5927 24.4865L12.8336 24.8605L11.8101 28.5081L15.6448 27.5267ZM26.8997 21.7952C27.1122 21.8954 27.2556 21.963 27.3169 22.0628C27.393 22.1867 27.393 22.7816 27.1393 23.4759C26.8854 24.17 25.6686 24.8035 25.0833 24.8888C24.5586 24.9653 23.8945 24.9973 23.1649 24.771C22.7225 24.6341 22.1552 24.4513 21.4285 24.1451C18.5731 22.9422 16.6434 20.2422 16.2787 19.7319C16.2532 19.6961 16.2353 19.6711 16.2253 19.6581L16.2229 19.6549C16.0617 19.4451 14.9816 18.0392 14.9816 16.5842C14.9816 15.2154 15.6708 14.4979 15.988 14.1677C16.0098 14.1451 16.0298 14.1243 16.0477 14.1052C16.3268 13.8077 16.6568 13.7333 16.8599 13.7333C17.0629 13.7333 17.2662 13.7351 17.4436 13.7438C17.4655 13.7449 17.4883 13.7448 17.5119 13.7446C17.6894 13.7436 17.9106 13.7424 18.1289 14.2539C18.2129 14.4508 18.3358 14.7426 18.4654 15.0504C18.7275 15.673 19.0171 16.3608 19.068 16.4603C19.1442 16.6091 19.1949 16.7826 19.0934 16.981C19.0782 17.0107 19.0641 17.0388 19.0506 17.0656C18.9744 17.2175 18.9183 17.3292 18.7889 17.4767C18.738 17.5346 18.6854 17.5971 18.6328 17.6596C18.528 17.7841 18.4232 17.9086 18.332 17.9973C18.1795 18.1455 18.0208 18.3062 18.1984 18.6037C18.3761 18.9012 18.9874 19.8743 19.8929 20.6622C20.8662 21.5093 21.7122 21.8672 22.141 22.0487C22.2247 22.0841 22.2925 22.1128 22.3423 22.1371C22.6468 22.2859 22.8244 22.261 23.0021 22.0628C23.1798 21.8645 23.7635 21.1951 23.9665 20.8976C24.1696 20.6002 24.3727 20.6498 24.6518 20.7489C24.9311 20.8481 26.4286 21.5669 26.7332 21.7157C26.7926 21.7447 26.8482 21.7709 26.8997 21.7952Z" fill="#FDFDFD"/>
</svg>
